--40002LOG 14:15:00:301346700 Waiting for file /home/seluser/videos/vid_chrome_or_firefox_40002* to be created...
Won't start video recording due to VIDEO env var false
ffmpeg version 2.8.17-0ubuntu0.1 Copyright (c) 2000-2020 the FFmpeg developers
  built with gcc 5.4.0 (Ubuntu 5.4.0-6ubuntu1~16.04.12) 20160609
  configuration: --prefix=/usr --extra-version=0ubuntu0.1 --build-suffix=-ffmpeg --toolchain=hardened --libdir=/usr/lib/x86_64-linux-gnu --incdir=/usr/include/x86_64-linux-gnu --cc=cc --cxx=g++ --enable-gpl --enable-shared --disable-stripping --disable-decoder=libopenjpeg --disable-decoder=libschroedinger --enable-avresample --enable-avisynth --enable-gnutls --enable-ladspa --enable-libass --enable-libbluray --enable-libbs2b --enable-libcaca --enable-libcdio --enable-libflite --enable-libfontconfig --enable-libfreetype --enable-libfribidi --enable-libgme --enable-libgsm --enable-libmodplug --enable-libmp3lame --enable-libopenjpeg --enable-libopus --enable-libpulse --enable-librtmp --enable-libschroedinger --enable-libshine --enable-libsnappy --enable-libsoxr --enable-libspeex --enable-libssh --enable-libtheora --enable-libtwolame --enable-libvorbis --enable-libvpx --enable-libwavpack --enable-libwebp --enable-libx265 --enable-libxvid --enable-libzvbi --enable-openal --enable-opengl --enable-x11grab --enable-libdc1394 --enable-libiec61883 --enable-libzmq --enable-frei0r --enable-libx264 --enable-libopencv
  libavutil      54. 31.100 / 54. 31.100
  libavcodec     56. 60.100 / 56. 60.100
  libavformat    56. 40.101 / 56. 40.101
  libavdevice    56.  4.100 / 56.  4.100
  libavfilter     5. 40.101 /  5. 40.101
  libavresample   2.  1.  0 /  2.  1.  0
  libswscale      3.  1.101 /  3.  1.101
  libswresample   1.  2.101 /  1.  2.101
  libpostproc    53.  3.100 / 53.  3.100
Input #0, x11grab, from ':87.0':
  Duration: N/A, start: 1605701700.489592, bitrate: N/A
    Stream #0:0: Video: rawvideo (BGR[0] / 0x524742), bgr0, 1366x768, 10 fps, 10 tbr, 1000k tbn, 10 tbc
[libx264 @ 0x2333320] using cpu capabilities: MMX2 SSE2Fast SSSE3 SSE4.2 AVX FMA3 AVX2 LZCNT BMI2
[libx264 @ 0x2333320] profile Constrained Baseline, level 3.2
[libx264 @ 0x2333320] 264 - core 148 r2643 5c65704 - H.264/MPEG-4 AVC codec - Copyleft 2003-2015 - http://www.videolan.org/x264.html - options: cabac=0 ref=1 deblock=0:0:0 analyse=0:0 me=dia subme=0 psy=1 psy_rd=1.00:0.00 mixed_ref=0 me_range=16 chroma_me=1 trellis=0 8x8dct=0 cqm=0 deadzone=21,11 fast_pskip=1 chroma_qp_offset=0 threads=3 lookahead_threads=1 sliced_threads=0 nr=0 decimate=1 interlaced=0 bluray_compat=0 constrained_intra=0 bframes=0 weightp=0 keyint=250 keyint_min=10 scenecut=0 intra_refresh=0 rc=crf mbtree=0 crf=23.0 qcomp=0.60 qpmin=0 qpmax=69 qpstep=4 ip_ratio=1.40 aq=0
Output #0, matroska, to '/home/seluser/videos/vid_chrome_or_firefox_40002.mkv':
  Metadata:
    encoder         : Lavf56.40.101
    Stream #0:0: Video: h264 (libx264) (H264 / 0x34363248), yuv420p, 1366x768, q=-1--1, 10 fps, 1k tbn, 10 tbc
    Metadata:
      encoder         : Lavc56.60.100 libx264
Stream mapping:
  Stream #0:0 -> #0:0 (rawvideo (native) -> h264 (libx264))
Press [q] to stop, [?] for help
[swscaler @ 0x233eca0] Warning: data is not aligned! This can lead to a speedloss
frame=    7 fps=0.0 q=10.0 size=      24kB time=00:00:00.30 bitrate= 658.9kbits/s    
frame=   13 fps= 12 q=10.0 size=      31kB time=00:00:00.90 bitrate= 278.0kbits/s    
frame=   19 fps= 11 q=9.0 size=      41kB time=00:00:01.50 bitrate= 223.8kbits/s    
frame=   24 fps= 11 q=9.0 size=      42kB time=00:00:02.00 bitrate= 173.5kbits/s    
frame=   29 fps= 11 q=12.0 size=      50kB time=00:00:02.50 bitrate= 163.9kbits/s    
frame=   34 fps= 11 q=16.0 size=      54kB time=00:00:03.00 bitrate= 146.3kbits/s    
frame=   40 fps= 10 q=10.0 size=      81kB time=00:00:03.60 bitrate= 184.3kbits/s    
frame=   46 fps= 10 q=9.0 size=      84kB time=00:00:04.20 bitrate= 163.6kbits/s    
frame=   52 fps= 10 q=9.0 size=      85kB time=00:00:04.80 bitrate= 144.9kbits/s    
frame=   58 fps= 10 q=9.0 size=      86kB time=00:00:05.40 bitrate= 131.0kbits/s    
frame=   64 fps= 10 q=9.0 size=      88kB time=00:00:06.00 bitrate= 119.6kbits/s    
frame=   70 fps= 10 q=9.0 size=      89kB time=00:00:06.60 bitrate= 110.3kbits/s    
frame=   75 fps= 10 q=9.0 size=      90kB time=00:00:07.10 bitrate= 103.9kbits/s    
frame=   80 fps= 10 q=9.0 size=      91kB time=00:00:07.60 bitrate=  97.9kbits/s    
frame=   86 fps= 10 q=14.0 size=     153kB time=00:00:08.20 bitrate= 152.6kbits/s    
frame=   91 fps= 10 q=11.0 size=     188kB time=00:00:08.70 bitrate= 177.3kbits/s    
frame=   98 fps= 10 q=14.0 size=     256kB time=00:00:09.40 bitrate= 223.0kbits/s    
frame=  103 fps= 10 q=14.0 size=     331kB time=00:00:09.90 bitrate= 274.2kbits/s    
frame=  110 fps= 10 q=10.0 size=     367kB time=00:00:10.60 bitrate= 283.3kbits/s    
frame=  116 fps= 10 q=9.0 size=     395kB time=00:00:11.20 bitrate= 288.9kbits/s    
frame=  122 fps= 10 q=14.0 size=     493kB time=00:00:11.80 bitrate= 341.9kbits/s    
frame=  128 fps= 10 q=9.0 size=     591kB time=00:00:12.40 bitrate= 390.4kbits/s    
frame=  133 fps= 10 q=9.0 size=     602kB time=00:00:12.90 bitrate= 382.4kbits/s    
frame=  139 fps= 10 q=9.0 size=     603kB time=00:00:13.50 bitrate= 365.8kbits/s    
frame=  145 fps= 10 q=9.0 size=     603kB time=00:00:14.10 bitrate= 350.6kbits/s    
frame=  150 fps= 10 q=13.0 size=     638kB time=00:00:14.60 bitrate= 357.8kbits/s    
frame=  156 fps= 10 q=9.0 size=     654kB time=00:00:15.20 bitrate= 352.7kbits/s    
frame=  161 fps= 10 q=9.0 size=     656kB time=00:00:15.70 bitrate= 342.5kbits/s    
frame=  167 fps= 10 q=9.0 size=     657kB time=00:00:16.30 bitrate= 330.0kbits/s    
frame=  172 fps= 10 q=9.0 size=     657kB time=00:00:16.80 bitrate= 320.3kbits/s    
frame=  177 fps= 10 q=9.0 size=     657kB time=00:00:17.30 bitrate= 311.2kbits/s    
frame=  183 fps= 10 q=9.0 size=     658kB time=00:00:17.90 bitrate= 300.9kbits/s    
frame=  188 fps= 10 q=9.0 size=     658kB time=00:00:18.40 bitrate= 292.8kbits/s    
frame=  194 fps= 10 q=9.0 size=     658kB time=00:00:19.00 bitrate= 283.7kbits/s    
frame=  200 fps= 10 q=9.0 size=     658kB time=00:00:19.60 bitrate= 275.1kbits/s    
frame=  206 fps= 10 q=9.0 size=     659kB time=00:00:20.20 bitrate= 267.1kbits/s    
frame=  212 fps= 10 q=9.0 size=     659kB time=00:00:20.80 bitrate= 259.6kbits/s    
frame=  217 fps= 10 q=9.0 size=     659kB time=00:00:21.30 bitrate= 253.5kbits/s    
frame=  222 fps= 10 q=9.0 size=     660kB time=00:00:21.80 bitrate= 247.8kbits/s    
frame=  227 fps= 10 q=9.0 size=     660kB time=00:00:22.30 bitrate= 242.3kbits/s    
frame=  233 fps= 10 q=9.0 size=     660kB time=00:00:22.90 bitrate= 236.1kbits/s    
frame=  239 fps= 10 q=9.0 size=     660kB time=00:00:23.50 bitrate= 230.1kbits/s    
frame=  244 fps= 10 q=9.0 size=     660kB time=00:00:24.00 bitrate= 225.4kbits/s    
frame=  249 fps= 10 q=9.0 size=     661kB time=00:00:24.50 bitrate= 220.9kbits/s    
frame=  255 fps= 10 q=16.0 size=     782kB time=00:00:25.10 bitrate= 255.3kbits/s    
frame=  260 fps= 10 q=12.0 size=     784kB time=00:00:25.60 bitrate= 251.0kbits/s    
frame=  266 fps= 10 q=11.0 size=     791kB time=00:00:26.20 bitrate= 247.4kbits/s    
frame=  271 fps= 10 q=12.0 size=     806kB time=00:00:26.70 bitrate= 247.4kbits/s    
frame=  276 fps= 10 q=9.0 size=     820kB time=00:00:27.20 bitrate= 246.8kbits/s    
frame=  282 fps= 10 q=11.0 size=     821kB time=00:00:27.80 bitrate= 241.9kbits/s    
frame=  288 fps= 10 q=10.0 size=     826kB time=00:00:28.40 bitrate= 238.4kbits/s    
frame=  294 fps= 10 q=9.0 size=     828kB time=00:00:29.00 bitrate= 233.8kbits/s    
frame=  300 fps= 10 q=16.0 size=     828kB time=00:00:29.60 bitrate= 229.2kbits/s    
frame=  305 fps= 10 q=10.0 size=     861kB time=00:00:30.10 bitrate= 234.2kbits/s    
frame=  310 fps= 10 q=9.0 size=     865kB time=00:00:30.60 bitrate= 231.6kbits/s    
frame=  316 fps= 10 q=11.0 size=     870kB time=00:00:31.20 bitrate= 228.3kbits/s    
frame=  320 fps= 10 q=20.0 size=     937kB time=00:00:31.60 bitrate= 243.0kbits/s    
frame=  326 fps= 10 q=10.0 size=    1045kB time=00:00:32.20 bitrate= 265.8kbits/s    
frame=  331 fps= 10 q=9.0 size=    1064kB time=00:00:32.70 bitrate= 266.6kbits/s    
frame=  337 fps= 10 q=9.0 size=    1065kB time=00:00:33.30 bitrate= 261.9kbits/s    
frame=  343 fps= 10 q=9.0 size=    1065kB time=00:00:33.90 bitrate= 257.5kbits/s    
frame=  349 fps= 10 q=9.0 size=    1066kB time=00:00:34.50 bitrate= 253.1kbits/s    
frame=  355 fps= 10 q=9.0 size=    1067kB time=00:00:35.10 bitrate= 248.9kbits/s    
frame=  360 fps= 10 q=9.0 size=    1067kB time=00:00:35.60 bitrate= 245.5kbits/s    
frame=  366 fps= 10 q=9.0 size=    1068kB time=00:00:36.20 bitrate= 241.6kbits/s    
frame=  371 fps= 10 q=9.0 size=    1068kB time=00:00:36.70 bitrate= 238.4kbits/s    
frame=  377 fps= 10 q=9.0 size=    1069kB time=00:00:37.30 bitrate= 234.7kbits/s    
frame=  383 fps= 10 q=9.0 size=    1069kB time=00:00:37.90 bitrate= 231.1kbits/s    
frame=  389 fps= 10 q=9.0 size=    1070kB time=00:00:38.50 bitrate= 227.7kbits/s    
frame=  394 fps= 10 q=9.0 size=    1070kB time=00:00:39.00 bitrate= 224.8kbits/s    
frame=  399 fps= 10 q=9.0 size=    1071kB time=00:00:39.50 bitrate= 222.1kbits/s    
frame=  405 fps= 10 q=9.0 size=    1072kB time=00:00:40.10 bitrate= 218.9kbits/s    
frame=  411 fps= 10 q=9.0 size=    1072kB time=00:00:40.70 bitrate= 215.8kbits/s    
frame=  417 fps= 10 q=9.0 size=    1073kB time=00:00:41.30 bitrate= 212.8kbits/s    
frame=  422 fps= 10 q=17.0 size=    1073kB time=00:00:41.80 bitrate= 210.3kbits/s    
frame=  427 fps= 10 q=13.0 size=    1101kB time=00:00:42.30 bitrate= 213.1kbits/s    
--40002LOG 14:15:43:428527000 Trapped SIGTERM or SIGINT so shutting down ffmpeg gracefully...
--40002LOG 14:15:43:439241400 Will kill VID_TOOL_PID=899 ...
frame=  430 fps= 10 q=-1.0 Lsize=    1110kB time=00:00:43.00 bitrate= 211.4kbits/s    
video:1106kB audio:0kB subtitle:0kB other streams:0kB global headers:0kB muxing overhead: 0.325730%
[libx264 @ 0x2333320] frame I:2     Avg QP:13.00  size: 69458
[libx264 @ 0x2333320] frame P:428   Avg QP:10.14  size:  2321
[libx264 @ 0x2333320] mb I  I16..4: 100.0%  0.0%  0.0%
[libx264 @ 0x2333320] mb P  I16..4:  1.8%  0.0%  0.0%  P16..4:  2.0%  0.0%  0.0%  0.0%  0.0%    skip:96.1%
[libx264 @ 0x2333320] coded y,uvDC,uvAC intra: 15.6% 9.7% 9.1% inter: 0.9% 0.9% 0.6%
[libx264 @ 0x2333320] i16 v,h,dc,p: 72% 26%  1%  1%
[libx264 @ 0x2333320] i8c dc,h,v,p: 80% 16%  3%  1%
[libx264 @ 0x2333320] kb/s:210.65
Exiting normally, received signal 2.
--40002LOG 14:15:44:460785700 Tried to kill -SIGTERM VID_TOOL_PID=899
--40002LOG 14:15:44:483585800 Waiting up to 6s for VID_TOOL_PID=899 to end with SIGTERM...
--40002LOG 14:15:44:504956700 wait_pid successfully managed to SIGTERM:VID_TOOL_PID=899 within less than 6s
--40002LOG 14:15:44:515163700 Will try to fix the videos...
--40002LOG 14:15:45:072434900 Fixing perms for /home/seluser/videos/vid_chrome_or_firefox_40002.mkv*
--40002LOG 14:15:45:119981900 Changing video encoding from mkv to mp4...
--40002LOG 14:15:50:429823000 Conversion from mkv to mp4 succeeded!
--40002LOG 14:15:50:450502700 Cleaning up /home/seluser/videos/vid_chrome_or_firefox_40002.mkv ...
--40002LOG 14:15:50:479596700 Optimizing /home/seluser/videos/vid_chrome_or_firefox_40002.mp4 for HTTP streaming...
--40002LOG 14:15:50:571502300 Succeeded to mp4box_retry.sh within 8s
--40002LOG 14:15:50:586685500 ffmpeg shutdown complete.
